<svg height="2942" width="720" xmlns="http://www.w3.org/2000/svg">
<rect height="2942" fill="#555" width="720"></rect>
<text fill="#7f7" font-family="Courier New" font-size="12" xml:space="preserve">
<tspan x="10" y="26">2015-08-13 00:56:19 +0800</tspan>
<tspan x="10" y="42">- replace some screen-captures with svg</tspan>
<tspan x="10" y="58"></tspan>
<tspan x="10" y="74">2015-08-04 09:38:26 +0800</tspan>
<tspan x="10" y="90">print error to stderr during install</tspan>
<tspan x="10" y="106"></tspan>
<tspan x="10" y="122">2015-07-31 17:13:54 +0800</tspan>
<tspan x="10" y="138">- npm publish 2015.7.1</tspan>
<tspan x="10" y="154">- update README.md</tspan>
<tspan x="10" y="170">- update dependencies</tspan>
<tspan x="10" y="186"></tspan>
<tspan x="10" y="202">2015-06-24 21:53:14 +0800</tspan>
<tspan x="10" y="218">- npm publish 2015.6.1</tspan>
<tspan x="10" y="234">- fix version breakage with latest npm install</tspan>
<tspan x="10" y="250"></tspan>
<tspan x="10" y="266">2015-06-20 14:11:34 +0800</tspan>
<tspan x="10" y="282">- npm publish 1.9.8-20150610b</tspan>
<tspan x="10" y="298">- remove legacy node build dependency</tspan>
<tspan x="10" y="314"></tspan>
<tspan x="10" y="330">2015-06-09 16:46:03 +0800</tspan>
<tspan x="10" y="346">- npm publish 1.9.8-2015.6.1-b</tspan>
<tspan x="10" y="362">- sync versioning with phantomjs-binary</tspan>
<tspan x="10" y="378">- update README.md with syntax-highlighted code-blocks</tspan>
<tspan x="10" y="394"></tspan>
<tspan x="10" y="410">2015-05-28 12:35:53 +0800</tspan>
<tspan x="10" y="426">- npm publish 2015.5.28-b</tspan>
<tspan x="10" y="442">- update README.md</tspan>
<tspan x="10" y="458"></tspan>
<tspan x="10" y="474">2015-04-26 22:03:04 +0800</tspan>
<tspan x="10" y="490">- npm publish 2015.4.26-c</tspan>
<tspan x="10" y="506">- transpose build-status table</tspan>
<tspan x="10" y="522">- add build-artifact link in README.md</tspan>
<tspan x="10" y="538">- add link to screen-capture in README.md</tspan>
<tspan x="10" y="554"></tspan>
<tspan x="10" y="570">2015-04-19 00:03:02 +0800</tspan>
<tspan x="10" y="586">npm publish 2015.4.18-a</tspan>
<tspan x="10" y="602"></tspan>
<tspan x="10" y="618">2015-04-18 22:39:32 +0800</tspan>
<tspan x="10" y="634">use https to download slimerjs</tspan>
<tspan x="10" y="650"></tspan>
<tspan x="10" y="666">2015-04-09 17:35:41 +0800</tspan>
<tspan x="10" y="682">npm publish 2015.4.9-a</tspan>
<tspan x="10" y="698"></tspan>
<tspan x="10" y="714">2015-04-03 14:04:08 +0800</tspan>
<tspan x="10" y="730">add node v0.10 travis build</tspan>
<tspan x="10" y="746"></tspan>
<tspan x="10" y="762">2015-04-03 14:01:24 +0800</tspan>
<tspan x="10" y="778">npm publish 2015.4.3-10</tspan>
<tspan x="10" y="794"></tspan>
<tspan x="10" y="810">2015-04-01 23:18:26 +0800</tspan>
<tspan x="10" y="826">add unzip check</tspan>
<tspan x="10" y="842"></tspan>
<tspan x="10" y="858">2015-04-01 19:24:07 +0800</tspan>
<tspan x="10" y="874">npm publish 2015.4.1-12</tspan>
<tspan x="10" y="890"></tspan>
<tspan x="10" y="906">2015-04-01 19:15:54 +0800</tspan>
<tspan x="10" y="922">include phantomjs and slimerjs binary in npm .bin directory</tspan>
<tspan x="10" y="938"></tspan>
<tspan x="10" y="954">2015-03-29 17:22:50 +0800</tspan>
<tspan x="10" y="970">npm publish 2015.3.29-13</tspan>
<tspan x="10" y="986"></tspan>
<tspan x="10" y="1002">2015-03-29 17:17:56 +0800</tspan>
<tspan x="10" y="1018">fix build</tspan>
<tspan x="10" y="1034"></tspan>
<tspan x="10" y="1050">2015-03-29 17:12:06 +0800</tspan>
<tspan x="10" y="1066">npm publish 2015.3.29-12</tspan>
<tspan x="10" y="1082"></tspan>
<tspan x="10" y="1098">2015-03-29 07:02:50 +0800</tspan>
<tspan x="10" y="1114">npm publish 2015.3.29-11</tspan>
<tspan x="10" y="1130"></tspan>
<tspan x="10" y="1146">2015-03-29 06:53:02 +0800</tspan>
<tspan x="10" y="1162">debug travis</tspan>
<tspan x="10" y="1178"></tspan>
<tspan x="10" y="1194">2015-03-29 05:12:15 +0800</tspan>
<tspan x="10" y="1210">fix build</tspan>
<tspan x="10" y="1226"></tspan>
<tspan x="10" y="1242">2015-03-29 05:10:08 +0800</tspan>
<tspan x="10" y="1258">fix build</tspan>
<tspan x="10" y="1274"></tspan>
<tspan x="10" y="1290">2015-03-29 04:57:53 +0800</tspan>
<tspan x="10" y="1306">add processSpawn</tspan>
<tspan x="10" y="1322"></tspan>
<tspan x="10" y="1338">2015-03-29 03:47:07 +0800</tspan>
<tspan x="10" y="1354">test screen-capture build</tspan>
<tspan x="10" y="1370"></tspan>
<tspan x="10" y="1386">2015-03-29 03:43:05 +0800</tspan>
<tspan x="10" y="1402">- add screen-capture example</tspan>
<tspan x="10" y="1418"></tspan>
<tspan x="10" y="1434">2015-03-29 02:43:43 +0800</tspan>
<tspan x="10" y="1450">merge test.js into package.json</tspan>
<tspan x="10" y="1466">add phantomjs-lite script to eval string input</tspan>
<tspan x="10" y="1482"></tspan>
<tspan x="10" y="1498">2015-03-24 20:53:32 +0800</tspan>
<tspan x="10" y="1514">'npm publish 2015.3.24-11'</tspan>
<tspan x="10" y="1530"></tspan>
<tspan x="10" y="1546">2015-03-24 18:23:43 +0800</tspan>
<tspan x="10" y="1562">'npm publish 2015.3.24-10'</tspan>
<tspan x="10" y="1578"></tspan>
<tspan x="10" y="1594">2015-03-24 18:09:47 +0800</tspan>
<tspan x="10" y="1610">update README.md</tspan>
<tspan x="10" y="1626"></tspan>
<tspan x="10" y="1642">2015-03-20 08:18:13 +0800</tspan>
<tspan x="10" y="1658">npm publish 2015.3.20-10</tspan>
<tspan x="10" y="1674"></tspan>
<tspan x="10" y="1690">2015-03-20 08:10:37 +0800</tspan>
<tspan x="10" y="1706">update README.md</tspan>
<tspan x="10" y="1722"></tspan>
<tspan x="10" y="1738">2015-03-20 07:56:00 +0800</tspan>
<tspan x="10" y="1754">fix build</tspan>
<tspan x="10" y="1770"></tspan>
<tspan x="10" y="1786">2015-03-20 03:30:35 +0800</tspan>
<tspan x="10" y="1802">update README.md</tspan>
<tspan x="10" y="1818"></tspan>
<tspan x="10" y="1834">2015-03-20 03:13:24 +0800</tspan>
<tspan x="10" y="1850">fix build</tspan>
<tspan x="10" y="1866"></tspan>
<tspan x="10" y="1882">2015-03-20 01:44:50 +0800</tspan>
<tspan x="10" y="1898">update to slimerjs-0.9.5</tspan>
<tspan x="10" y="1914"></tspan>
<tspan x="10" y="1930">2015-03-20 01:19:34 +0800</tspan>
<tspan x="10" y="1946">save old changelog</tspan>
<tspan x="10" y="1962">## changelog</tspan>
<tspan x="10" y="1978">#### todo</tspan>
<tspan x="10" y="1994">- add screen-capture example</tspan>
<tspan x="10" y="2010">- none</tspan>
<tspan x="10" y="2026"></tspan>
<tspan x="10" y="2042">#### 2015.1.x</tspan>
<tspan x="10" y="2058">- automate build with utility2</tspan>
<tspan x="10" y="2074">- update README.md</tspan>
<tspan x="10" y="2090"></tspan>
<tspan x="10" y="2106">#### 2014.10.31</tspan>
<tspan x="10" y="2122">- remove dependency on https://kaizhu256.github.io/node-phantomjs-lite/slimerjs-0.9.3.tar.bz2</tspan>
<tspan x="10" y="2138">- bump slimerjs to 0.9.4</tspan>
<tspan x="10" y="2154">- rename cli.sh to npm-postinstall.sh</tspan>
<tspan x="10" y="2170">- remove unzip dependency for installing slimerjs on linux systems</tspan>
<tspan x="10" y="2186">- use lightweight version of slimerjs</tspan>
<tspan x="10" y="2202">- better cache file download</tspan>
<tspan x="10" y="2218">- rename headless-browser-lite to phantomjs-lite</tspan>
<tspan x="10" y="2234">- split main.js into index.js and test.js</tspan>
<tspan x="10" y="2250"></tspan>
<tspan x="10" y="2266">#### 2014.9.22</tspan>
<tspan x="10" y="2282">- add README.md</tspan>
<tspan x="10" y="2298">- initial package creation</tspan>
<tspan x="10" y="2314"></tspan>
<tspan x="10" y="2330">2015-01-05 02:32:18 +0800</tspan>
<tspan x="10" y="2346">update quickstart</tspan>
<tspan x="10" y="2362"></tspan>
<tspan x="10" y="2378">2015-01-05 02:25:03 +0800</tspan>
<tspan x="10" y="2394">update to utility2@2015.1.4-106</tspan>
<tspan x="10" y="2410"></tspan>
<tspan x="10" y="2426">2015-01-04 18:25:41 +0800</tspan>
<tspan x="10" y="2442">update README.md</tspan>
<tspan x="10" y="2458"></tspan>
<tspan x="10" y="2474">2015-01-04 18:02:44 +0800</tspan>
<tspan x="10" y="2490">squash beta branch to version 2015.1.4-103. see changelog section of README.md for change</tspan>
<tspan x="10" y="2506"></tspan>
<tspan x="10" y="2522">2015-01-04 14:33:36 +0800</tspan>
<tspan x="10" y="2538">squash beta branch to version 2015.1.4-101. see changelog section of README.md for changes</tspan>
<tspan x="10" y="2554"></tspan>
<tspan x="10" y="2570">2014-12-22 00:04:52 +0800</tspan>
<tspan x="10" y="2586">update README.md</tspan>
<tspan x="10" y="2602"></tspan>
<tspan x="10" y="2618">2014-11-23 15:17:59 +0800</tspan>
<tspan x="10" y="2634">update docs</tspan>
<tspan x="10" y="2650"></tspan>
<tspan x="10" y="2666">2014-11-17 10:20:27 +0800</tspan>
<tspan x="10" y="2682">remove 'unzip' dependency for installing slimerjs on linux systems</tspan>
<tspan x="10" y="2698"></tspan>
<tspan x="10" y="2714">2014-11-11 20:50:11 +0800</tspan>
<tspan x="10" y="2730">squash beta branch to version 2014.10.31-20. see changelog section of README.md for changes</tspan>
<tspan x="10" y="2746"></tspan>
<tspan x="10" y="2762">2014-11-07 16:22:46 +0800</tspan>
<tspan x="10" y="2778">squash beta branch to version 2014.10.31-18. see changelog section of README.md for changes</tspan>
<tspan x="10" y="2794"></tspan>
<tspan x="10" y="2810">2014-11-07 15:31:27 +0800</tspan>
<tspan x="10" y="2826">fix npm install</tspan>
<tspan x="10" y="2842"></tspan>
<tspan x="10" y="2858">2014-11-07 15:13:37 +0800</tspan>
<tspan x="10" y="2874">sync</tspan>
<tspan x="10" y="2890"></tspan>
<tspan x="10" y="2906">2014-11-07 15:07:15 +0800</tspan>
<tspan x="10" y="2922">bump to version 2014.10.31-11</tspan>
</text>
</svg>
