<svg height="2974" width="720" xmlns="http://www.w3.org/2000/svg">
<rect height="2974" fill="#555" width="720"></rect>
<text fill="#7f7" font-family="Courier New" font-size="12" xml:space="preserve">
<tspan x="10" y="26">2015-09-25 22:41:04 +0800</tspan>
<tspan x="10" y="42">'update to nodejs v4'</tspan>
<tspan x="10" y="58"></tspan>
<tspan x="10" y="74">2015-08-24 21:16:46 +0800</tspan>
<tspan x="10" y="90">add codeship.com badge</tspan>
<tspan x="10" y="106"></tspan>
<tspan x="10" y="122">2015-08-20 12:27:36 +0800</tspan>
<tspan x="10" y="138">'update README.md'</tspan>
<tspan x="10" y="154"></tspan>
<tspan x="10" y="170">2015-08-20 08:16:43 +0800</tspan>
<tspan x="10" y="186">'update README.md'</tspan>
<tspan x="10" y="202"></tspan>
<tspan x="10" y="218">2015-08-19 11:24:05 +0800</tspan>
<tspan x="10" y="234">- npm publish 2015.8.2</tspan>
<tspan x="10" y="250">- upgrade to slimerjs@0.9.6</tspan>
<tspan x="10" y="266"></tspan>
<tspan x="10" y="282">2015-08-13 01:14:33 +0800</tspan>
<tspan x="10" y="298">- npm publish 2015.8.1</tspan>
<tspan x="10" y="314">- replace some screen-captures with svg</tspan>
<tspan x="10" y="330"></tspan>
<tspan x="10" y="346">2015-07-31 17:13:54 +0800</tspan>
<tspan x="10" y="362">- npm publish 2015.7.1</tspan>
<tspan x="10" y="378">- update README.md</tspan>
<tspan x="10" y="394">- update dependencies</tspan>
<tspan x="10" y="410"></tspan>
<tspan x="10" y="426">2015-06-24 21:53:14 +0800</tspan>
<tspan x="10" y="442">- npm publish 2015.6.1</tspan>
<tspan x="10" y="458">- fix version breakage with latest npm install</tspan>
<tspan x="10" y="474"></tspan>
<tspan x="10" y="490">2015-06-20 14:11:34 +0800</tspan>
<tspan x="10" y="506">- npm publish 1.9.8-20150610b</tspan>
<tspan x="10" y="522">- remove legacy node build dependency</tspan>
<tspan x="10" y="538"></tspan>
<tspan x="10" y="554">2015-06-09 16:46:03 +0800</tspan>
<tspan x="10" y="570">- npm publish 1.9.8-2015.6.1-b</tspan>
<tspan x="10" y="586">- sync versioning with phantomjs-binary</tspan>
<tspan x="10" y="602">- update README.md with syntax-highlighted code-blocks</tspan>
<tspan x="10" y="618"></tspan>
<tspan x="10" y="634">2015-05-28 12:35:53 +0800</tspan>
<tspan x="10" y="650">- npm publish 2015.5.28-b</tspan>
<tspan x="10" y="666">- update README.md</tspan>
<tspan x="10" y="682"></tspan>
<tspan x="10" y="698">2015-04-26 22:03:04 +0800</tspan>
<tspan x="10" y="714">- npm publish 2015.4.26-c</tspan>
<tspan x="10" y="730">- transpose build-status table</tspan>
<tspan x="10" y="746">- add build-artifact link in README.md</tspan>
<tspan x="10" y="762">- add link to screen-capture in README.md</tspan>
<tspan x="10" y="778"></tspan>
<tspan x="10" y="794">2015-04-19 00:03:02 +0800</tspan>
<tspan x="10" y="810">npm publish 2015.4.18-a</tspan>
<tspan x="10" y="826"></tspan>
<tspan x="10" y="842">2015-04-18 22:39:32 +0800</tspan>
<tspan x="10" y="858">use https to download slimerjs</tspan>
<tspan x="10" y="874"></tspan>
<tspan x="10" y="890">2015-04-09 17:35:41 +0800</tspan>
<tspan x="10" y="906">npm publish 2015.4.9-a</tspan>
<tspan x="10" y="922"></tspan>
<tspan x="10" y="938">2015-04-03 14:04:08 +0800</tspan>
<tspan x="10" y="954">add node v0.10 travis build</tspan>
<tspan x="10" y="970"></tspan>
<tspan x="10" y="986">2015-04-03 14:01:24 +0800</tspan>
<tspan x="10" y="1002">npm publish 2015.4.3-10</tspan>
<tspan x="10" y="1018"></tspan>
<tspan x="10" y="1034">2015-04-01 23:18:26 +0800</tspan>
<tspan x="10" y="1050">add unzip check</tspan>
<tspan x="10" y="1066"></tspan>
<tspan x="10" y="1082">2015-04-01 19:24:07 +0800</tspan>
<tspan x="10" y="1098">npm publish 2015.4.1-12</tspan>
<tspan x="10" y="1114"></tspan>
<tspan x="10" y="1130">2015-04-01 19:15:54 +0800</tspan>
<tspan x="10" y="1146">include phantomjs and slimerjs binary in npm .bin directory</tspan>
<tspan x="10" y="1162"></tspan>
<tspan x="10" y="1178">2015-03-29 17:22:50 +0800</tspan>
<tspan x="10" y="1194">npm publish 2015.3.29-13</tspan>
<tspan x="10" y="1210"></tspan>
<tspan x="10" y="1226">2015-03-29 17:17:56 +0800</tspan>
<tspan x="10" y="1242">fix build</tspan>
<tspan x="10" y="1258"></tspan>
<tspan x="10" y="1274">2015-03-29 17:12:06 +0800</tspan>
<tspan x="10" y="1290">npm publish 2015.3.29-12</tspan>
<tspan x="10" y="1306"></tspan>
<tspan x="10" y="1322">2015-03-29 07:02:50 +0800</tspan>
<tspan x="10" y="1338">npm publish 2015.3.29-11</tspan>
<tspan x="10" y="1354"></tspan>
<tspan x="10" y="1370">2015-03-29 06:53:02 +0800</tspan>
<tspan x="10" y="1386">debug travis</tspan>
<tspan x="10" y="1402"></tspan>
<tspan x="10" y="1418">2015-03-29 05:12:15 +0800</tspan>
<tspan x="10" y="1434">fix build</tspan>
<tspan x="10" y="1450"></tspan>
<tspan x="10" y="1466">2015-03-29 05:10:08 +0800</tspan>
<tspan x="10" y="1482">fix build</tspan>
<tspan x="10" y="1498"></tspan>
<tspan x="10" y="1514">2015-03-29 04:57:53 +0800</tspan>
<tspan x="10" y="1530">add processSpawn</tspan>
<tspan x="10" y="1546"></tspan>
<tspan x="10" y="1562">2015-03-29 03:47:07 +0800</tspan>
<tspan x="10" y="1578">test screen-capture build</tspan>
<tspan x="10" y="1594"></tspan>
<tspan x="10" y="1610">2015-03-29 03:43:05 +0800</tspan>
<tspan x="10" y="1626">- add screen-capture example</tspan>
<tspan x="10" y="1642"></tspan>
<tspan x="10" y="1658">2015-03-29 02:43:43 +0800</tspan>
<tspan x="10" y="1674">merge test.js into package.json</tspan>
<tspan x="10" y="1690">add phantomjs-lite script to eval string input</tspan>
<tspan x="10" y="1706"></tspan>
<tspan x="10" y="1722">2015-03-24 20:53:32 +0800</tspan>
<tspan x="10" y="1738">'npm publish 2015.3.24-11'</tspan>
<tspan x="10" y="1754"></tspan>
<tspan x="10" y="1770">2015-03-24 18:23:43 +0800</tspan>
<tspan x="10" y="1786">'npm publish 2015.3.24-10'</tspan>
<tspan x="10" y="1802"></tspan>
<tspan x="10" y="1818">2015-03-24 18:09:47 +0800</tspan>
<tspan x="10" y="1834">update README.md</tspan>
<tspan x="10" y="1850"></tspan>
<tspan x="10" y="1866">2015-03-20 08:18:13 +0800</tspan>
<tspan x="10" y="1882">npm publish 2015.3.20-10</tspan>
<tspan x="10" y="1898"></tspan>
<tspan x="10" y="1914">2015-03-20 08:10:37 +0800</tspan>
<tspan x="10" y="1930">update README.md</tspan>
<tspan x="10" y="1946"></tspan>
<tspan x="10" y="1962">2015-03-20 07:56:00 +0800</tspan>
<tspan x="10" y="1978">fix build</tspan>
<tspan x="10" y="1994"></tspan>
<tspan x="10" y="2010">2015-03-20 03:30:35 +0800</tspan>
<tspan x="10" y="2026">update README.md</tspan>
<tspan x="10" y="2042"></tspan>
<tspan x="10" y="2058">2015-03-20 03:13:24 +0800</tspan>
<tspan x="10" y="2074">fix build</tspan>
<tspan x="10" y="2090"></tspan>
<tspan x="10" y="2106">2015-03-20 01:44:50 +0800</tspan>
<tspan x="10" y="2122">update to slimerjs-0.9.5</tspan>
<tspan x="10" y="2138"></tspan>
<tspan x="10" y="2154">2015-03-20 01:19:34 +0800</tspan>
<tspan x="10" y="2170">save old changelog</tspan>
<tspan x="10" y="2186">## changelog</tspan>
<tspan x="10" y="2202">#### todo</tspan>
<tspan x="10" y="2218">- add screen-capture example</tspan>
<tspan x="10" y="2234">- none</tspan>
<tspan x="10" y="2250"></tspan>
<tspan x="10" y="2266">#### 2015.1.x</tspan>
<tspan x="10" y="2282">- automate build with utility2</tspan>
<tspan x="10" y="2298">- update README.md</tspan>
<tspan x="10" y="2314"></tspan>
<tspan x="10" y="2330">#### 2014.10.31</tspan>
<tspan x="10" y="2346">- remove dependency on https://kaizhu256.github.io/node-phantomjs-lite/slimerjs-0.9.3.tar.bz2</tspan>
<tspan x="10" y="2362">- bump slimerjs to 0.9.4</tspan>
<tspan x="10" y="2378">- rename cli.sh to npm-postinstall.sh</tspan>
<tspan x="10" y="2394">- remove unzip dependency for installing slimerjs on linux systems</tspan>
<tspan x="10" y="2410">- use lightweight version of slimerjs</tspan>
<tspan x="10" y="2426">- better cache file download</tspan>
<tspan x="10" y="2442">- rename headless-browser-lite to phantomjs-lite</tspan>
<tspan x="10" y="2458">- split main.js into index.js and test.js</tspan>
<tspan x="10" y="2474"></tspan>
<tspan x="10" y="2490">#### 2014.9.22</tspan>
<tspan x="10" y="2506">- add README.md</tspan>
<tspan x="10" y="2522">- initial package creation</tspan>
<tspan x="10" y="2538"></tspan>
<tspan x="10" y="2554">2015-01-05 02:32:18 +0800</tspan>
<tspan x="10" y="2570">update quickstart</tspan>
<tspan x="10" y="2586"></tspan>
<tspan x="10" y="2602">2015-01-05 02:25:03 +0800</tspan>
<tspan x="10" y="2618">update to utility2@2015.1.4-106</tspan>
<tspan x="10" y="2634"></tspan>
<tspan x="10" y="2650">2015-01-04 18:25:41 +0800</tspan>
<tspan x="10" y="2666">update README.md</tspan>
<tspan x="10" y="2682"></tspan>
<tspan x="10" y="2698">2015-01-04 18:02:44 +0800</tspan>
<tspan x="10" y="2714">squash beta branch to version 2015.1.4-103. see changelog section of README.md for change</tspan>
<tspan x="10" y="2730"></tspan>
<tspan x="10" y="2746">2015-01-04 14:33:36 +0800</tspan>
<tspan x="10" y="2762">squash beta branch to version 2015.1.4-101. see changelog section of README.md for changes</tspan>
<tspan x="10" y="2778"></tspan>
<tspan x="10" y="2794">2014-12-22 00:04:52 +0800</tspan>
<tspan x="10" y="2810">update README.md</tspan>
<tspan x="10" y="2826"></tspan>
<tspan x="10" y="2842">2014-11-23 15:17:59 +0800</tspan>
<tspan x="10" y="2858">update docs</tspan>
<tspan x="10" y="2874"></tspan>
<tspan x="10" y="2890">2014-11-17 10:20:27 +0800</tspan>
<tspan x="10" y="2906">remove 'unzip' dependency for installing slimerjs on linux systems</tspan>
<tspan x="10" y="2922"></tspan>
<tspan x="10" y="2938">2014-11-11 20:50:11 +0800</tspan>
<tspan x="10" y="2954">squash beta branch to version 2014.10.31-20. see changelog section of README.md for changes</tspan>
</text>
</svg>
